<mxfile host="app.diagrams.net" modified="2023-12-06T22:17:22.880Z" agent="Mozilla/5.0 (X11; Linux x86_64; rv:120.0) Gecko/20100101 Firefox/120.0" etag="bbfdNK8MFP-ISRGjkoU1" version="22.1.7" type="device">
  <diagram id="C5RBs43oDa-KdzZeNtuy" name="Page-1">
    <mxGraphModel dx="-1913" dy="633" grid="1" gridSize="10" guides="1" tooltips="1" connect="1" arrows="1" fold="1" page="1" pageScale="1" pageWidth="827" pageHeight="1169" math="0" shadow="0">
      <root>
        <mxCell id="WIyWlLk6GJQsqaUBKTNV-0" />
        <mxCell id="WIyWlLk6GJQsqaUBKTNV-1" parent="WIyWlLk6GJQsqaUBKTNV-0" />
        <mxCell id="5FpKh8Eru8khB4CTVwO_-0" value="&lt;&lt;abstract&gt;&gt; Image" style="swimlane;fontStyle=2;align=center;verticalAlign=top;childLayout=stackLayout;horizontal=1;startSize=26;horizontalStack=0;resizeParent=1;resizeLast=0;collapsible=1;marginBottom=0;rounded=0;shadow=0;strokeWidth=1;" parent="WIyWlLk6GJQsqaUBKTNV-1" vertex="1">
          <mxGeometry x="3440" y="1080" width="360" height="268" as="geometry">
            <mxRectangle x="230" y="140" width="160" height="26" as="alternateBounds" />
          </mxGeometry>
        </mxCell>
        <mxCell id="5FpKh8Eru8khB4CTVwO_-1" value="" style="line;html=1;strokeWidth=1;align=left;verticalAlign=middle;spacingTop=-1;spacingLeft=3;spacingRight=3;rotatable=0;labelPosition=right;points=[];portConstraint=eastwest;" parent="5FpKh8Eru8khB4CTVwO_-0" vertex="1">
          <mxGeometry y="26" width="360" height="8" as="geometry" />
        </mxCell>
        <mxCell id="5FpKh8Eru8khB4CTVwO_-2" value=" -m_width: int&#xa;  -m_height: int      &#xa;  -m_pixels: std::vector&lt;std::vector&lt;Pixel&gt;&gt;" style="text;align=left;verticalAlign=top;spacingLeft=4;spacingRight=4;overflow=hidden;rotatable=0;points=[[0,0.5],[1,0.5]];portConstraint=eastwest;" parent="5FpKh8Eru8khB4CTVwO_-0" vertex="1">
          <mxGeometry y="34" width="360" height="76" as="geometry" />
        </mxCell>
        <mxCell id="5FpKh8Eru8khB4CTVwO_-3" value="" style="line;strokeWidth=1;fillColor=none;align=left;verticalAlign=middle;spacingTop=-1;spacingLeft=3;spacingRight=3;rotatable=0;labelPosition=right;points=[];portConstraint=eastwest;strokeColor=inherit;" parent="5FpKh8Eru8khB4CTVwO_-0" vertex="1">
          <mxGeometry y="110" width="360" height="8" as="geometry" />
        </mxCell>
        <mxCell id="5FpKh8Eru8khB4CTVwO_-4" value="&lt;pre&gt;&lt;code class=&quot;!whitespace-pre hljs language-plantuml&quot;&gt; +get_pixels(): std::vector&amp;lt;std::vector&amp;lt;Pixel&amp;gt;&amp;gt;                                     &lt;br&gt; +set_pixels(pixels: const std::vector&amp;lt;std::vector&amp;lt;Pixel&amp;gt;&amp;gt;&amp;amp;):void     &lt;br&gt; +get_width(): int                                                                                        &lt;br&gt;   +get_height(): int                                                                                        &lt;br&gt;   +set_width(new_width: const int&amp;amp;):void                                                &lt;br&gt;   +set_height(new_height: const int&amp;amp;):void                                             &lt;br&gt;&lt;/code&gt;&lt;code class=&quot;!whitespace-pre hljs language-plantuml&quot;&gt;+Image()                                                                                                   &lt;br&gt;  +~Image()                                                                                                  &lt;/code&gt;&lt;/pre&gt;" style="text;html=1;align=center;verticalAlign=middle;resizable=0;points=[];autosize=1;strokeColor=none;fillColor=none;" parent="5FpKh8Eru8khB4CTVwO_-0" vertex="1">
          <mxGeometry y="118" width="360" height="150" as="geometry" />
        </mxCell>
        <mxCell id="5FpKh8Eru8khB4CTVwO_-5" value="BMPImage" style="swimlane;fontStyle=1;align=center;verticalAlign=top;childLayout=stackLayout;horizontal=1;startSize=26;horizontalStack=0;resizeParent=1;resizeParentMax=0;resizeLast=0;collapsible=1;marginBottom=0;whiteSpace=wrap;html=1;" parent="WIyWlLk6GJQsqaUBKTNV-1" vertex="1">
          <mxGeometry x="3900" y="1080" width="170" height="100" as="geometry" />
        </mxCell>
        <mxCell id="5FpKh8Eru8khB4CTVwO_-7" value="" style="line;strokeWidth=1;fillColor=none;align=left;verticalAlign=middle;spacingTop=-1;spacingLeft=3;spacingRight=3;rotatable=0;labelPosition=right;points=[];portConstraint=eastwest;strokeColor=inherit;" parent="5FpKh8Eru8khB4CTVwO_-5" vertex="1">
          <mxGeometry y="26" width="170" height="74" as="geometry" />
        </mxCell>
        <mxCell id="5FpKh8Eru8khB4CTVwO_-11" value="" style="endArrow=open;endFill=1;endSize=12;html=1;rounded=0;entryX=1;entryY=0.5;entryDx=0;entryDy=0;" parent="WIyWlLk6GJQsqaUBKTNV-1" target="5FpKh8Eru8khB4CTVwO_-2" edge="1">
          <mxGeometry width="160" relative="1" as="geometry">
            <mxPoint x="3900" y="1152" as="sourcePoint" />
            <mxPoint x="4010" y="1260" as="targetPoint" />
          </mxGeometry>
        </mxCell>
        <mxCell id="5FpKh8Eru8khB4CTVwO_-18" value="PPMImage" style="swimlane;fontStyle=1;align=center;verticalAlign=top;childLayout=stackLayout;horizontal=1;startSize=26;horizontalStack=0;resizeParent=1;resizeParentMax=0;resizeLast=0;collapsible=1;marginBottom=0;whiteSpace=wrap;html=1;" parent="WIyWlLk6GJQsqaUBKTNV-1" vertex="1">
          <mxGeometry x="3900" y="1210" width="280" height="148" as="geometry" />
        </mxCell>
        <mxCell id="5FpKh8Eru8khB4CTVwO_-19" value="&lt;pre&gt;&lt;code class=&quot;!whitespace-pre hljs language-plantuml&quot;&gt;-m_max_color: int&lt;br&gt;-m_magic: std::string     &lt;br&gt;-m_last_line: char&lt;/code&gt;&lt;/pre&gt;" style="text;strokeColor=none;fillColor=none;align=left;verticalAlign=top;spacingLeft=4;spacingRight=4;overflow=hidden;rotatable=0;points=[[0,0.5],[1,0.5]];portConstraint=eastwest;whiteSpace=wrap;html=1;" parent="5FpKh8Eru8khB4CTVwO_-18" vertex="1">
          <mxGeometry y="26" width="280" height="64" as="geometry" />
        </mxCell>
        <mxCell id="5FpKh8Eru8khB4CTVwO_-20" value="" style="line;strokeWidth=1;fillColor=none;align=left;verticalAlign=middle;spacingTop=-1;spacingLeft=3;spacingRight=3;rotatable=0;labelPosition=right;points=[];portConstraint=eastwest;strokeColor=inherit;" parent="5FpKh8Eru8khB4CTVwO_-18" vertex="1">
          <mxGeometry y="90" width="280" height="8" as="geometry" />
        </mxCell>
        <mxCell id="5FpKh8Eru8khB4CTVwO_-21" value="&lt;pre&gt;&lt;code class=&quot;!whitespace-pre hljs language-plantuml&quot;&gt;+read_image(file_name: const std::string&amp;amp;)&lt;/code&gt;:void&lt;br&gt;&lt;code class=&quot;!whitespace-pre hljs language-plantuml&quot;&gt;+PPMImage()&lt;/code&gt;&lt;/pre&gt;" style="text;strokeColor=none;fillColor=none;align=left;verticalAlign=top;spacingLeft=4;spacingRight=4;overflow=hidden;rotatable=0;points=[[0,0.5],[1,0.5]];portConstraint=eastwest;whiteSpace=wrap;html=1;" parent="5FpKh8Eru8khB4CTVwO_-18" vertex="1">
          <mxGeometry y="98" width="280" height="50" as="geometry" />
        </mxCell>
        <mxCell id="5FpKh8Eru8khB4CTVwO_-23" value="" style="endArrow=open;endFill=1;endSize=12;html=1;rounded=0;entryX=1;entryY=0.5;entryDx=0;entryDy=0;" parent="WIyWlLk6GJQsqaUBKTNV-1" edge="1">
          <mxGeometry width="160" relative="1" as="geometry">
            <mxPoint x="3900" y="1290" as="sourcePoint" />
            <mxPoint x="3800" y="1290" as="targetPoint" />
          </mxGeometry>
        </mxCell>
        <mxCell id="5FpKh8Eru8khB4CTVwO_-24" value="OtherImage" style="swimlane;fontStyle=1;align=center;verticalAlign=top;childLayout=stackLayout;horizontal=1;startSize=26;horizontalStack=0;resizeParent=1;resizeParentMax=0;resizeLast=0;collapsible=1;marginBottom=0;whiteSpace=wrap;html=1;" parent="WIyWlLk6GJQsqaUBKTNV-1" vertex="1">
          <mxGeometry x="3900" y="1390" width="370" height="130" as="geometry" />
        </mxCell>
        <mxCell id="5FpKh8Eru8khB4CTVwO_-26" value="" style="line;strokeWidth=1;fillColor=none;align=left;verticalAlign=middle;spacingTop=-1;spacingLeft=3;spacingRight=3;rotatable=0;labelPosition=right;points=[];portConstraint=eastwest;strokeColor=inherit;" parent="5FpKh8Eru8khB4CTVwO_-24" vertex="1">
          <mxGeometry y="26" width="370" height="54" as="geometry" />
        </mxCell>
        <mxCell id="5FpKh8Eru8khB4CTVwO_-27" value="&lt;pre&gt;&lt;code class=&quot;!whitespace-pre hljs language-plantuml&quot;&gt;+OtherImage()&lt;br&gt;&lt;/code&gt;&lt;code class=&quot;!whitespace-pre hljs language-plantuml&quot;&gt;+read(filePath: const QString&amp;amp;): std::vector&amp;lt;std::vector&amp;lt;Pixel&amp;gt;&amp;gt;&lt;br/&gt;&lt;/code&gt;&lt;/pre&gt;&lt;br&gt;" style="text;strokeColor=none;fillColor=none;align=left;verticalAlign=top;spacingLeft=4;spacingRight=4;overflow=hidden;rotatable=0;points=[[0,0.5],[1,0.5]];portConstraint=eastwest;whiteSpace=wrap;html=1;" parent="5FpKh8Eru8khB4CTVwO_-24" vertex="1">
          <mxGeometry y="80" width="370" height="50" as="geometry" />
        </mxCell>
        <mxCell id="5FpKh8Eru8khB4CTVwO_-32" value="" style="endArrow=open;endFill=1;endSize=12;html=1;rounded=0;entryX=0.889;entryY=1.013;entryDx=0;entryDy=0;entryPerimeter=0;" parent="WIyWlLk6GJQsqaUBKTNV-1" target="5FpKh8Eru8khB4CTVwO_-4" edge="1">
          <mxGeometry width="160" relative="1" as="geometry">
            <mxPoint x="3900" y="1440" as="sourcePoint" />
            <mxPoint x="3800" y="1431.62" as="targetPoint" />
            <Array as="points">
              <mxPoint x="3760" y="1440" />
            </Array>
          </mxGeometry>
        </mxCell>
        <mxCell id="5FpKh8Eru8khB4CTVwO_-37" value="Pixel" style="swimlane;fontStyle=1;align=center;verticalAlign=top;childLayout=stackLayout;horizontal=1;startSize=26;horizontalStack=0;resizeParent=1;resizeParentMax=0;resizeLast=0;collapsible=1;marginBottom=0;whiteSpace=wrap;html=1;" parent="WIyWlLk6GJQsqaUBKTNV-1" vertex="1">
          <mxGeometry x="4200" y="1083" width="250" height="220" as="geometry" />
        </mxCell>
        <mxCell id="5FpKh8Eru8khB4CTVwO_-38" value="&lt;pre&gt;&lt;code class=&quot;!whitespace-pre hljs language-plantuml&quot;&gt;+m_blue: unsigned char&lt;br&gt;+m_green: unsigned char&lt;br&gt;+m_red: unsigned char&lt;/code&gt;&lt;/pre&gt;" style="text;strokeColor=none;fillColor=none;align=left;verticalAlign=top;spacingLeft=4;spacingRight=4;overflow=hidden;rotatable=0;points=[[0,0.5],[1,0.5]];portConstraint=eastwest;whiteSpace=wrap;html=1;" parent="5FpKh8Eru8khB4CTVwO_-37" vertex="1">
          <mxGeometry y="26" width="250" height="74" as="geometry" />
        </mxCell>
        <mxCell id="5FpKh8Eru8khB4CTVwO_-39" value="" style="line;strokeWidth=1;fillColor=none;align=left;verticalAlign=middle;spacingTop=-1;spacingLeft=3;spacingRight=3;rotatable=0;labelPosition=right;points=[];portConstraint=eastwest;strokeColor=inherit;" parent="5FpKh8Eru8khB4CTVwO_-37" vertex="1">
          <mxGeometry y="100" width="250" height="8" as="geometry" />
        </mxCell>
        <mxCell id="5FpKh8Eru8khB4CTVwO_-40" value="&lt;pre&gt;&lt;code class=&quot;!whitespace-pre hljs language-plantuml&quot;&gt;+Pixel()&lt;br/&gt;+operator+(other: const Pixel&amp;amp;): Pixel&lt;br/&gt;+operator-(other: const Pixel&amp;amp;): Pixel&lt;br/&gt;+operator*(scalar: float): Pixel&lt;br/&gt;+operator==(other: const Pixel&amp;amp;): bool&lt;br/&gt;+operator!=(other: const Pixel&amp;amp;): bool&lt;/code&gt;&lt;/pre&gt;" style="text;strokeColor=none;fillColor=none;align=left;verticalAlign=top;spacingLeft=4;spacingRight=4;overflow=hidden;rotatable=0;points=[[0,0.5],[1,0.5]];portConstraint=eastwest;whiteSpace=wrap;html=1;" parent="5FpKh8Eru8khB4CTVwO_-37" vertex="1">
          <mxGeometry y="108" width="250" height="112" as="geometry" />
        </mxCell>
        <mxCell id="5FpKh8Eru8khB4CTVwO_-42" value="" style="endArrow=open;endSize=12;dashed=1;html=1;rounded=0;exitX=0.25;exitY=0;exitDx=0;exitDy=0;entryX=0.771;entryY=-0.011;entryDx=0;entryDy=0;entryPerimeter=0;" parent="WIyWlLk6GJQsqaUBKTNV-1" source="5FpKh8Eru8khB4CTVwO_-37" target="5FpKh8Eru8khB4CTVwO_-0" edge="1">
          <mxGeometry width="160" relative="1" as="geometry">
            <mxPoint x="4210" y="1050" as="sourcePoint" />
            <mxPoint x="3650" y="1000" as="targetPoint" />
            <Array as="points">
              <mxPoint x="4263" y="1000" />
              <mxPoint x="3720" y="1000" />
            </Array>
          </mxGeometry>
        </mxCell>
        <mxCell id="5FpKh8Eru8khB4CTVwO_-43" value="" style="endArrow=open;endSize=12;dashed=1;html=1;rounded=0;entryX=0.178;entryY=-0.008;entryDx=0;entryDy=0;entryPerimeter=0;" parent="WIyWlLk6GJQsqaUBKTNV-1" target="5FpKh8Eru8khB4CTVwO_-5" edge="1">
          <mxGeometry width="160" relative="1" as="geometry">
            <mxPoint x="4320" y="1080" as="sourcePoint" />
            <mxPoint x="3920" y="1080" as="targetPoint" />
            <Array as="points">
              <mxPoint x="4320" y="1030" />
              <mxPoint x="3930" y="1030" />
            </Array>
          </mxGeometry>
        </mxCell>
        <mxCell id="5FpKh8Eru8khB4CTVwO_-44" value="" style="endArrow=open;endSize=12;dashed=1;html=1;rounded=0;" parent="WIyWlLk6GJQsqaUBKTNV-1" edge="1">
          <mxGeometry width="160" relative="1" as="geometry">
            <mxPoint x="4330" y="1080" as="sourcePoint" />
            <mxPoint x="4110" y="1210" as="targetPoint" />
            <Array as="points">
              <mxPoint x="4330" y="1050" />
              <mxPoint x="4110" y="1050" />
            </Array>
          </mxGeometry>
        </mxCell>
        <mxCell id="5FpKh8Eru8khB4CTVwO_-45" value="" style="endArrow=open;endSize=12;dashed=1;html=1;rounded=0;exitX=0.635;exitY=1.008;exitDx=0;exitDy=0;exitPerimeter=0;" parent="WIyWlLk6GJQsqaUBKTNV-1" source="5FpKh8Eru8khB4CTVwO_-40" edge="1">
          <mxGeometry width="160" relative="1" as="geometry">
            <mxPoint x="4690" y="1470" as="sourcePoint" />
            <mxPoint x="4270" y="1440" as="targetPoint" />
            <Array as="points">
              <mxPoint x="4360" y="1440" />
              <mxPoint x="4300" y="1440" />
            </Array>
          </mxGeometry>
        </mxCell>
        <mxCell id="5FpKh8Eru8khB4CTVwO_-54" value="BMPFileHeader" style="swimlane;fontStyle=0;childLayout=stackLayout;horizontal=1;startSize=26;fillColor=none;horizontalStack=0;resizeParent=1;resizeParentMax=0;resizeLast=0;collapsible=1;marginBottom=0;whiteSpace=wrap;html=1;" parent="WIyWlLk6GJQsqaUBKTNV-1" vertex="1">
          <mxGeometry x="4480" y="1000" width="160" height="160" as="geometry" />
        </mxCell>
        <mxCell id="5FpKh8Eru8khB4CTVwO_-57" value="&lt;pre&gt;&lt;code class=&quot;!whitespace-pre hljs language-plantuml&quot;&gt;+m_magic: char[2]&lt;br&gt;+m_size: unsigned int&lt;br&gt;+m_reserved: unsigned int&lt;br&gt;+m_offset: unsigned int&lt;br&gt;&lt;br&gt;&lt;/code&gt;&lt;/pre&gt;" style="text;strokeColor=none;fillColor=none;align=left;verticalAlign=top;spacingLeft=4;spacingRight=4;overflow=hidden;rotatable=0;points=[[0,0.5],[1,0.5]];portConstraint=eastwest;whiteSpace=wrap;html=1;" parent="5FpKh8Eru8khB4CTVwO_-54" vertex="1">
          <mxGeometry y="26" width="160" height="134" as="geometry" />
        </mxCell>
        <mxCell id="5FpKh8Eru8khB4CTVwO_-58" value="BMPImageHeader" style="swimlane;fontStyle=0;childLayout=stackLayout;horizontal=1;startSize=26;fillColor=none;horizontalStack=0;resizeParent=1;resizeParentMax=0;resizeLast=0;collapsible=1;marginBottom=0;whiteSpace=wrap;html=1;" parent="WIyWlLk6GJQsqaUBKTNV-1" vertex="1">
          <mxGeometry x="4480" y="1210" width="230" height="210" as="geometry" />
        </mxCell>
        <mxCell id="5FpKh8Eru8khB4CTVwO_-61" value="&lt;pre&gt;&lt;code class=&quot;!whitespace-pre hljs language-plantuml&quot;&gt;+m_header_size: unsigned int&lt;br&gt;+m_width: int&lt;br&gt;+m_height: int&lt;br&gt;+m_planes: unsigned short&lt;br&gt;+m_bpp: unsigned short&lt;br&gt;+m_compression: unsigned int&lt;br&gt;+m_image_size: unsigned int&lt;br&gt;+m_x_ppm: int&lt;br&gt;+m_y_ppm: int&lt;br&gt;+m_colors: unsigned int&lt;br&gt;+m_important_colors: unsigned int&lt;/code&gt;&lt;/pre&gt;" style="text;strokeColor=none;fillColor=none;align=left;verticalAlign=top;spacingLeft=4;spacingRight=4;overflow=hidden;rotatable=0;points=[[0,0.5],[1,0.5]];portConstraint=eastwest;whiteSpace=wrap;html=1;" parent="5FpKh8Eru8khB4CTVwO_-58" vertex="1">
          <mxGeometry y="26" width="230" height="184" as="geometry" />
        </mxCell>
        <mxCell id="5FpKh8Eru8khB4CTVwO_-64" value="BMPImageProcess" style="swimlane;fontStyle=1;align=center;verticalAlign=top;childLayout=stackLayout;horizontal=1;startSize=26;horizontalStack=0;resizeParent=1;resizeParentMax=0;resizeLast=0;collapsible=1;marginBottom=0;whiteSpace=wrap;html=1;" parent="WIyWlLk6GJQsqaUBKTNV-1" vertex="1">
          <mxGeometry x="3440" y="1480" width="420" height="240" as="geometry" />
        </mxCell>
        <mxCell id="5FpKh8Eru8khB4CTVwO_-65" value="&lt;pre&gt;&lt;code class=&quot;!whitespace-pre hljs language-plantuml&quot;&gt;-m_bmpFileHeader: BMPFileHeader&lt;br&gt;-m_bmpImageHeader: BMPImageHeader&lt;br&gt;-m_pixels: std::vector&amp;lt;std::vector&amp;lt;Pixel&amp;gt;&amp;gt;&lt;/code&gt;&lt;/pre&gt;" style="text;strokeColor=none;fillColor=none;align=left;verticalAlign=top;spacingLeft=4;spacingRight=4;overflow=hidden;rotatable=0;points=[[0,0.5],[1,0.5]];portConstraint=eastwest;whiteSpace=wrap;html=1;" parent="5FpKh8Eru8khB4CTVwO_-64" vertex="1">
          <mxGeometry y="26" width="420" height="74" as="geometry" />
        </mxCell>
        <mxCell id="5FpKh8Eru8khB4CTVwO_-66" value="" style="line;strokeWidth=1;fillColor=none;align=left;verticalAlign=middle;spacingTop=-1;spacingLeft=3;spacingRight=3;rotatable=0;labelPosition=right;points=[];portConstraint=eastwest;strokeColor=inherit;" parent="5FpKh8Eru8khB4CTVwO_-64" vertex="1">
          <mxGeometry y="100" width="420" height="8" as="geometry" />
        </mxCell>
        <mxCell id="5FpKh8Eru8khB4CTVwO_-67" value="&lt;pre&gt;&lt;code class=&quot;!whitespace-pre hljs language-plantuml&quot;&gt;+read_image(file_name: const std::string&amp;amp;): void&lt;br/&gt;+get_pixels(): std::vector&amp;lt;std::vector&amp;lt;Pixel&amp;gt;&amp;gt;&lt;br/&gt;+get_width(): int&lt;br/&gt;+get_height(): int&lt;br/&gt;-read_data_of_pixels(file: std::ifstream&amp;amp;): std::vector&amp;lt;std::vector&amp;lt;Pixel&amp;gt;&amp;gt;&lt;/code&gt;&lt;/pre&gt;" style="text;strokeColor=none;fillColor=none;align=left;verticalAlign=top;spacingLeft=4;spacingRight=4;overflow=hidden;rotatable=0;points=[[0,0.5],[1,0.5]];portConstraint=eastwest;whiteSpace=wrap;html=1;" parent="5FpKh8Eru8khB4CTVwO_-64" vertex="1">
          <mxGeometry y="108" width="420" height="132" as="geometry" />
        </mxCell>
        <mxCell id="5FpKh8Eru8khB4CTVwO_-68" value="" style="endArrow=open;endSize=12;dashed=1;html=1;rounded=0;exitX=0.635;exitY=1.008;exitDx=0;exitDy=0;exitPerimeter=0;entryX=1;entryY=0.73;entryDx=0;entryDy=0;entryPerimeter=0;" parent="WIyWlLk6GJQsqaUBKTNV-1" target="5FpKh8Eru8khB4CTVwO_-65" edge="1">
          <mxGeometry width="160" relative="1" as="geometry">
            <mxPoint x="4559" y="1420" as="sourcePoint" />
            <mxPoint x="4470" y="1556" as="targetPoint" />
            <Array as="points">
              <mxPoint x="4560" y="1556" />
            </Array>
          </mxGeometry>
        </mxCell>
        <mxCell id="5FpKh8Eru8khB4CTVwO_-69" value="" style="endArrow=open;endSize=12;dashed=1;html=1;rounded=0;entryX=1.005;entryY=1.014;entryDx=0;entryDy=0;entryPerimeter=0;exitX=1.013;exitY=0.313;exitDx=0;exitDy=0;exitPerimeter=0;" parent="WIyWlLk6GJQsqaUBKTNV-1" source="5FpKh8Eru8khB4CTVwO_-57" target="5FpKh8Eru8khB4CTVwO_-65" edge="1">
          <mxGeometry width="160" relative="1" as="geometry">
            <mxPoint x="4740" y="1060" as="sourcePoint" />
            <mxPoint x="4650" y="1576" as="targetPoint" />
            <Array as="points">
              <mxPoint x="4740" y="1068" />
              <mxPoint x="4740" y="1506" />
              <mxPoint x="4740" y="1576" />
              <mxPoint x="4680" y="1576" />
            </Array>
          </mxGeometry>
        </mxCell>
        <mxCell id="5FpKh8Eru8khB4CTVwO_-70" value="" style="endArrow=open;endSize=12;dashed=1;html=1;rounded=0;exitX=0.003;exitY=0.055;exitDx=0;exitDy=0;exitPerimeter=0;entryX=0.057;entryY=-0.005;entryDx=0;entryDy=0;entryPerimeter=0;" parent="WIyWlLk6GJQsqaUBKTNV-1" source="5FpKh8Eru8khB4CTVwO_-67" target="5FpKh8Eru8khB4CTVwO_-5" edge="1">
          <mxGeometry width="160" relative="1" as="geometry">
            <mxPoint x="3397" y="1460" as="sourcePoint" />
            <mxPoint x="3890" y="1070" as="targetPoint" />
            <Array as="points">
              <mxPoint x="3398" y="1596" />
              <mxPoint x="3400" y="1320" />
              <mxPoint x="3400" y="1040" />
              <mxPoint x="3910" y="1040" />
            </Array>
          </mxGeometry>
        </mxCell>
        <mxCell id="5FpKh8Eru8khB4CTVwO_-71" value="Convert" style="swimlane;fontStyle=1;align=center;verticalAlign=top;childLayout=stackLayout;horizontal=1;startSize=26;horizontalStack=0;resizeParent=1;resizeParentMax=0;resizeLast=0;collapsible=1;marginBottom=0;whiteSpace=wrap;html=1;" parent="WIyWlLk6GJQsqaUBKTNV-1" vertex="1">
          <mxGeometry x="3960" y="1620" width="550" height="150" as="geometry" />
        </mxCell>
        <mxCell id="5FpKh8Eru8khB4CTVwO_-72" value="&amp;nbsp;" style="text;strokeColor=none;fillColor=none;align=left;verticalAlign=top;spacingLeft=4;spacingRight=4;overflow=hidden;rotatable=0;points=[[0,0.5],[1,0.5]];portConstraint=eastwest;whiteSpace=wrap;html=1;" parent="5FpKh8Eru8khB4CTVwO_-71" vertex="1">
          <mxGeometry y="26" width="550" height="26" as="geometry" />
        </mxCell>
        <mxCell id="5FpKh8Eru8khB4CTVwO_-73" value="" style="line;strokeWidth=1;fillColor=none;align=left;verticalAlign=middle;spacingTop=-1;spacingLeft=3;spacingRight=3;rotatable=0;labelPosition=right;points=[];portConstraint=eastwest;strokeColor=inherit;" parent="5FpKh8Eru8khB4CTVwO_-71" vertex="1">
          <mxGeometry y="52" width="550" height="8" as="geometry" />
        </mxCell>
        <mxCell id="5FpKh8Eru8khB4CTVwO_-74" value="&lt;pre&gt;&lt;code class=&quot;!whitespace-pre hljs language-plantuml&quot;&gt;+ascii(image: const Image*, file_path: const std::string&amp;amp;): void&lt;br/&gt;+grayscale(image: Image*): void&lt;br/&gt;+resized_image(image: Image*, new_height: int, new_width: int): std::vector&amp;lt;std::vector&amp;lt;Pixel&amp;gt;&amp;gt;&lt;br/&gt;-map(value: float, start1: float, stop1: float, start2: float, stop2: float): float&lt;/code&gt;&lt;/pre&gt;" style="text;strokeColor=none;fillColor=none;align=left;verticalAlign=top;spacingLeft=4;spacingRight=4;overflow=hidden;rotatable=0;points=[[0,0.5],[1,0.5]];portConstraint=eastwest;whiteSpace=wrap;html=1;" parent="5FpKh8Eru8khB4CTVwO_-71" vertex="1">
          <mxGeometry y="60" width="550" height="90" as="geometry" />
        </mxCell>
        <mxCell id="5FpKh8Eru8khB4CTVwO_-75" value="" style="endArrow=open;endSize=12;dashed=1;html=1;rounded=0;entryX=1.001;entryY=0.134;entryDx=0;entryDy=0;entryPerimeter=0;" parent="WIyWlLk6GJQsqaUBKTNV-1" target="5FpKh8Eru8khB4CTVwO_-71" edge="1">
          <mxGeometry width="160" relative="1" as="geometry">
            <mxPoint x="4380" y="1080" as="sourcePoint" />
            <mxPoint x="4760" y="1670" as="targetPoint" />
            <Array as="points">
              <mxPoint x="4382" y="980" />
              <mxPoint x="4760" y="980" />
              <mxPoint x="4760" y="1640" />
            </Array>
          </mxGeometry>
        </mxCell>
        <mxCell id="5FpKh8Eru8khB4CTVwO_-76" value="" style="endArrow=open;endSize=12;dashed=1;html=1;rounded=0;exitX=-0.004;exitY=0.746;exitDx=0;exitDy=0;exitPerimeter=0;entryX=-0.005;entryY=0.666;entryDx=0;entryDy=0;entryPerimeter=0;" parent="WIyWlLk6GJQsqaUBKTNV-1" source="5FpKh8Eru8khB4CTVwO_-4" target="5FpKh8Eru8khB4CTVwO_-74" edge="1">
          <mxGeometry width="160" relative="1" as="geometry">
            <mxPoint x="3410" y="1300" as="sourcePoint" />
            <mxPoint x="3380" y="1770" as="targetPoint" />
            <Array as="points">
              <mxPoint x="3380" y="1310" />
              <mxPoint x="3380" y="1740" />
            </Array>
          </mxGeometry>
        </mxCell>
        <mxCell id="5FpKh8Eru8khB4CTVwO_-81" value="MainWondow" style="swimlane;fontStyle=1;align=center;verticalAlign=top;childLayout=stackLayout;horizontal=1;startSize=26;horizontalStack=0;resizeParent=1;resizeParentMax=0;resizeLast=0;collapsible=1;marginBottom=0;whiteSpace=wrap;html=1;" parent="WIyWlLk6GJQsqaUBKTNV-1" vertex="1">
          <mxGeometry x="3440" y="1790" width="390" height="190" as="geometry" />
        </mxCell>
        <mxCell id="5FpKh8Eru8khB4CTVwO_-82" value="&lt;pre&gt;&lt;code class=&quot;!whitespace-pre hljs language-plantuml&quot;&gt;-ui: Ui::MainWindow&lt;br&gt;-secondScreen: SecondScreen*&lt;br/&gt;-stackedWidget: QStackedWidget&lt;/code&gt;&lt;/pre&gt;" style="text;strokeColor=none;fillColor=none;align=left;verticalAlign=top;spacingLeft=4;spacingRight=4;overflow=hidden;rotatable=0;points=[[0,0.5],[1,0.5]];portConstraint=eastwest;whiteSpace=wrap;html=1;" parent="5FpKh8Eru8khB4CTVwO_-81" vertex="1">
          <mxGeometry y="26" width="390" height="64" as="geometry" />
        </mxCell>
        <mxCell id="5FpKh8Eru8khB4CTVwO_-83" value="" style="line;strokeWidth=1;fillColor=none;align=left;verticalAlign=middle;spacingTop=-1;spacingLeft=3;spacingRight=3;rotatable=0;labelPosition=right;points=[];portConstraint=eastwest;strokeColor=inherit;" parent="5FpKh8Eru8khB4CTVwO_-81" vertex="1">
          <mxGeometry y="90" width="390" height="20" as="geometry" />
        </mxCell>
        <mxCell id="5FpKh8Eru8khB4CTVwO_-84" value="&lt;pre&gt;&lt;code class=&quot;!whitespace-pre hljs language-plantuml&quot;&gt;+MainWindow(parent: QWidget* = nullptr)&lt;br/&gt;+~MainWindow() : void&lt;br/&gt;+on_pushButton_clicked() : void&lt;/code&gt;&lt;/pre&gt;" style="text;strokeColor=none;fillColor=none;align=left;verticalAlign=top;spacingLeft=4;spacingRight=4;overflow=hidden;rotatable=0;points=[[0,0.5],[1,0.5]];portConstraint=eastwest;whiteSpace=wrap;html=1;" parent="5FpKh8Eru8khB4CTVwO_-81" vertex="1">
          <mxGeometry y="110" width="390" height="80" as="geometry" />
        </mxCell>
        <mxCell id="8VvqiKtZqV-mQerocvvE-12" value="" style="endArrow=none;html=1;rounded=0;" edge="1" parent="5FpKh8Eru8khB4CTVwO_-81">
          <mxGeometry width="50" height="50" relative="1" as="geometry">
            <mxPoint x="280" y="200" as="sourcePoint" />
            <mxPoint x="280" y="190" as="targetPoint" />
          </mxGeometry>
        </mxCell>
        <mxCell id="5FpKh8Eru8khB4CTVwO_-87" value="SecondScreen" style="swimlane;fontStyle=1;align=center;verticalAlign=top;childLayout=stackLayout;horizontal=1;startSize=26;horizontalStack=0;resizeParent=1;resizeParentMax=0;resizeLast=0;collapsible=1;marginBottom=0;whiteSpace=wrap;html=1;" parent="WIyWlLk6GJQsqaUBKTNV-1" vertex="1">
          <mxGeometry x="3860" y="1790" width="480" height="230" as="geometry" />
        </mxCell>
        <mxCell id="5FpKh8Eru8khB4CTVwO_-88" value="&lt;pre&gt;&lt;code class=&quot;!whitespace-pre hljs language-plantuml&quot;&gt;-ui: Ui::SecondScreen&lt;br/&gt;  -scene: QGraphicsScene&lt;/code&gt;&lt;/pre&gt;" style="text;strokeColor=none;fillColor=none;align=left;verticalAlign=top;spacingLeft=4;spacingRight=4;overflow=hidden;rotatable=0;points=[[0,0.5],[1,0.5]];portConstraint=eastwest;whiteSpace=wrap;html=1;" parent="5FpKh8Eru8khB4CTVwO_-87" vertex="1">
          <mxGeometry y="26" width="480" height="54" as="geometry" />
        </mxCell>
        <mxCell id="5FpKh8Eru8khB4CTVwO_-89" value="" style="line;strokeWidth=1;fillColor=none;align=left;verticalAlign=middle;spacingTop=-1;spacingLeft=3;spacingRight=3;rotatable=0;labelPosition=right;points=[];portConstraint=eastwest;strokeColor=inherit;" parent="5FpKh8Eru8khB4CTVwO_-87" vertex="1">
          <mxGeometry y="80" width="480" height="8" as="geometry" />
        </mxCell>
        <mxCell id="5FpKh8Eru8khB4CTVwO_-90" value="&lt;pre&gt;&lt;code class=&quot;!whitespace-pre hljs language-plantuml&quot;&gt;+SecondScreen(parent: QWidget* = nullptr)&lt;br&gt;+~SecondScreen() : void&lt;br/&gt;+remove_item(text: const QString&amp;amp;) : void&lt;br/&gt;+on_list_item_clicked(item: QListWidgetItem*) : void&lt;br/&gt;+on_pushButton_clicked() : void&lt;br/&gt;+on_pushButton_2_clicked() : void&lt;br/&gt;+is_image(filePath: const QString&amp;amp;) : bool&lt;br/&gt;+load_image(file_path: const QString&amp;amp;) : void&lt;/code&gt;&lt;/pre&gt;" style="text;strokeColor=none;fillColor=none;align=left;verticalAlign=top;spacingLeft=4;spacingRight=4;overflow=hidden;rotatable=0;points=[[0,0.5],[1,0.5]];portConstraint=eastwest;whiteSpace=wrap;html=1;" parent="5FpKh8Eru8khB4CTVwO_-87" vertex="1">
          <mxGeometry y="88" width="480" height="142" as="geometry" />
        </mxCell>
        <mxCell id="5FpKh8Eru8khB4CTVwO_-91" value="" style="endArrow=open;endSize=12;dashed=1;html=1;rounded=0;exitX=-0.004;exitY=0.346;exitDx=0;exitDy=0;exitPerimeter=0;entryX=-0.007;entryY=0.862;entryDx=0;entryDy=0;entryPerimeter=0;" parent="WIyWlLk6GJQsqaUBKTNV-1" source="5FpKh8Eru8khB4CTVwO_-4" target="5FpKh8Eru8khB4CTVwO_-90" edge="1">
          <mxGeometry width="160" relative="1" as="geometry">
            <mxPoint x="3451" y="1605" as="sourcePoint" />
            <mxPoint x="3730" y="2000" as="targetPoint" />
            <Array as="points">
              <mxPoint x="3410" y="1250" />
              <mxPoint x="3370" y="1250" />
              <mxPoint x="3350" y="1250" />
              <mxPoint x="3350" y="2000" />
            </Array>
          </mxGeometry>
        </mxCell>
        <mxCell id="5FpKh8Eru8khB4CTVwO_-92" value="" style="endArrow=open;endSize=12;dashed=1;html=1;rounded=0;exitX=1.002;exitY=0.693;exitDx=0;exitDy=0;exitPerimeter=0;entryX=0.063;entryY=0;entryDx=0;entryDy=0;entryPerimeter=0;" parent="WIyWlLk6GJQsqaUBKTNV-1" source="5FpKh8Eru8khB4CTVwO_-67" target="5FpKh8Eru8khB4CTVwO_-87" edge="1">
          <mxGeometry width="160" relative="1" as="geometry">
            <mxPoint x="3880" y="1690" as="sourcePoint" />
            <mxPoint x="3890" y="1780" as="targetPoint" />
            <Array as="points">
              <mxPoint x="3890" y="1680" />
            </Array>
          </mxGeometry>
        </mxCell>
        <mxCell id="5FpKh8Eru8khB4CTVwO_-93" value="" style="endArrow=open;endSize=12;dashed=1;html=1;rounded=0;" parent="WIyWlLk6GJQsqaUBKTNV-1" edge="1">
          <mxGeometry width="160" relative="1" as="geometry">
            <mxPoint x="4270" y="1480" as="sourcePoint" />
            <mxPoint x="4340" y="1840" as="targetPoint" />
            <Array as="points">
              <mxPoint x="4580" y="1480" />
              <mxPoint x="4580" y="1840" />
            </Array>
          </mxGeometry>
        </mxCell>
        <mxCell id="5FpKh8Eru8khB4CTVwO_-94" value="" style="endArrow=open;endSize=12;dashed=1;html=1;rounded=0;exitX=0.708;exitY=1.04;exitDx=0;exitDy=0;exitPerimeter=0;entryX=0.125;entryY=-0.006;entryDx=0;entryDy=0;entryPerimeter=0;" parent="WIyWlLk6GJQsqaUBKTNV-1" source="5FpKh8Eru8khB4CTVwO_-40" target="5FpKh8Eru8khB4CTVwO_-87" edge="1">
          <mxGeometry width="160" relative="1" as="geometry">
            <mxPoint x="4379" y="1324" as="sourcePoint" />
            <mxPoint x="3920" y="1700" as="targetPoint" />
            <Array as="points">
              <mxPoint x="4380" y="1460" />
              <mxPoint x="4380" y="1600" />
              <mxPoint x="3920" y="1600" />
            </Array>
          </mxGeometry>
        </mxCell>
        <mxCell id="5FpKh8Eru8khB4CTVwO_-95" value="" style="endArrow=open;endSize=12;dashed=1;html=1;rounded=0;exitX=0.579;exitY=0.003;exitDx=0;exitDy=0;exitPerimeter=0;entryX=0.999;entryY=0.836;entryDx=0;entryDy=0;entryPerimeter=0;" parent="WIyWlLk6GJQsqaUBKTNV-1" source="5FpKh8Eru8khB4CTVwO_-5" target="5FpKh8Eru8khB4CTVwO_-88" edge="1">
          <mxGeometry width="160" relative="1" as="geometry">
            <mxPoint x="4339" y="810" as="sourcePoint" />
            <mxPoint x="4790" y="1900" as="targetPoint" />
            <Array as="points">
              <mxPoint x="4000" y="960" />
              <mxPoint x="4290" y="960" />
              <mxPoint x="4790" y="960" />
              <mxPoint x="4790" y="1860" />
            </Array>
          </mxGeometry>
        </mxCell>
        <mxCell id="5FpKh8Eru8khB4CTVwO_-96" value="" style="endArrow=open;endSize=12;dashed=1;html=1;rounded=0;entryX=0.167;entryY=0;entryDx=0;entryDy=0;entryPerimeter=0;exitX=0.107;exitY=1.013;exitDx=0;exitDy=0;exitPerimeter=0;" parent="WIyWlLk6GJQsqaUBKTNV-1" source="5FpKh8Eru8khB4CTVwO_-27" target="5FpKh8Eru8khB4CTVwO_-87" edge="1">
          <mxGeometry width="160" relative="1" as="geometry">
            <mxPoint x="3950" y="1520" as="sourcePoint" />
            <mxPoint x="3860" y="1658" as="targetPoint" />
            <Array as="points">
              <mxPoint x="3940" y="1660" />
            </Array>
          </mxGeometry>
        </mxCell>
        <mxCell id="5FpKh8Eru8khB4CTVwO_-97" value="CustomWidget" style="swimlane;fontStyle=1;align=center;verticalAlign=top;childLayout=stackLayout;horizontal=1;startSize=26;horizontalStack=0;resizeParent=1;resizeParentMax=0;resizeLast=0;collapsible=1;marginBottom=0;whiteSpace=wrap;html=1;" parent="WIyWlLk6GJQsqaUBKTNV-1" vertex="1">
          <mxGeometry x="4450" y="1900" width="370" height="190" as="geometry" />
        </mxCell>
        <mxCell id="5FpKh8Eru8khB4CTVwO_-98" value="&lt;pre&gt;&lt;code class=&quot;!whitespace-pre hljs language-plantuml&quot;&gt;-ui: Ui::CustomWidget&lt;/code&gt;&lt;/pre&gt;" style="text;strokeColor=none;fillColor=none;align=left;verticalAlign=top;spacingLeft=4;spacingRight=4;overflow=hidden;rotatable=0;points=[[0,0.5],[1,0.5]];portConstraint=eastwest;whiteSpace=wrap;html=1;" parent="5FpKh8Eru8khB4CTVwO_-97" vertex="1">
          <mxGeometry y="26" width="370" height="44" as="geometry" />
        </mxCell>
        <mxCell id="5FpKh8Eru8khB4CTVwO_-99" value="" style="line;strokeWidth=1;fillColor=none;align=left;verticalAlign=middle;spacingTop=-1;spacingLeft=3;spacingRight=3;rotatable=0;labelPosition=right;points=[];portConstraint=eastwest;strokeColor=inherit;" parent="5FpKh8Eru8khB4CTVwO_-97" vertex="1">
          <mxGeometry y="70" width="370" height="8" as="geometry" />
        </mxCell>
        <mxCell id="5FpKh8Eru8khB4CTVwO_-100" value="&lt;pre&gt;&lt;code class=&quot;!whitespace-pre hljs language-plantuml&quot;&gt;+CustomWidget(parent: QWidget* = nullptr)&lt;br&gt;+~CustomWidget() : void&lt;br&gt;+set_text(text: const QString&amp;amp;) : void&lt;br&gt;+get_text() : QString&lt;br&gt;+send_remove_item(text: const QString&amp;amp;) : void&lt;br&gt;-close_button_clicked() : void&lt;/code&gt;&lt;/pre&gt;" style="text;strokeColor=none;fillColor=none;align=left;verticalAlign=top;spacingLeft=4;spacingRight=4;overflow=hidden;rotatable=0;points=[[0,0.5],[1,0.5]];portConstraint=eastwest;whiteSpace=wrap;html=1;" parent="5FpKh8Eru8khB4CTVwO_-97" vertex="1">
          <mxGeometry y="78" width="370" height="112" as="geometry" />
        </mxCell>
        <mxCell id="5FpKh8Eru8khB4CTVwO_-102" value="" style="endArrow=open;endSize=12;dashed=1;html=1;rounded=0;exitX=0;exitY=0.5;exitDx=0;exitDy=0;entryX=1;entryY=0.5;entryDx=0;entryDy=0;" parent="WIyWlLk6GJQsqaUBKTNV-1" source="5FpKh8Eru8khB4CTVwO_-98" target="5FpKh8Eru8khB4CTVwO_-90" edge="1">
          <mxGeometry width="160" relative="1" as="geometry">
            <mxPoint x="4270" y="2080" as="sourcePoint" />
            <mxPoint x="4430" y="2080" as="targetPoint" />
          </mxGeometry>
        </mxCell>
        <mxCell id="5FpKh8Eru8khB4CTVwO_-103" value="" style="endArrow=open;endSize=12;dashed=1;html=1;rounded=0;exitX=1.005;exitY=0.857;exitDx=0;exitDy=0;exitPerimeter=0;entryX=0;entryY=0.196;entryDx=0;entryDy=0;entryPerimeter=0;" parent="WIyWlLk6GJQsqaUBKTNV-1" source="5FpKh8Eru8khB4CTVwO_-90" target="5FpKh8Eru8khB4CTVwO_-100" edge="1">
          <mxGeometry width="160" relative="1" as="geometry">
            <mxPoint x="4370" y="2010" as="sourcePoint" />
            <mxPoint x="4430" y="2000" as="targetPoint" />
          </mxGeometry>
        </mxCell>
        <mxCell id="8VvqiKtZqV-mQerocvvE-0" value="QWidget" style="swimlane;fontStyle=1;align=center;verticalAlign=top;childLayout=stackLayout;horizontal=1;startSize=26;horizontalStack=0;resizeParent=1;resizeParentMax=0;resizeLast=0;collapsible=1;marginBottom=0;whiteSpace=wrap;html=1;" vertex="1" parent="WIyWlLk6GJQsqaUBKTNV-1">
          <mxGeometry x="4120" y="2060" width="160" height="86" as="geometry" />
        </mxCell>
        <mxCell id="8VvqiKtZqV-mQerocvvE-1" value="..." style="text;strokeColor=none;fillColor=none;align=left;verticalAlign=top;spacingLeft=4;spacingRight=4;overflow=hidden;rotatable=0;points=[[0,0.5],[1,0.5]];portConstraint=eastwest;whiteSpace=wrap;html=1;" vertex="1" parent="8VvqiKtZqV-mQerocvvE-0">
          <mxGeometry y="26" width="160" height="26" as="geometry" />
        </mxCell>
        <mxCell id="8VvqiKtZqV-mQerocvvE-2" value="" style="line;strokeWidth=1;fillColor=none;align=left;verticalAlign=middle;spacingTop=-1;spacingLeft=3;spacingRight=3;rotatable=0;labelPosition=right;points=[];portConstraint=eastwest;strokeColor=inherit;" vertex="1" parent="8VvqiKtZqV-mQerocvvE-0">
          <mxGeometry y="52" width="160" height="8" as="geometry" />
        </mxCell>
        <mxCell id="8VvqiKtZqV-mQerocvvE-3" value="...()" style="text;strokeColor=none;fillColor=none;align=left;verticalAlign=top;spacingLeft=4;spacingRight=4;overflow=hidden;rotatable=0;points=[[0,0.5],[1,0.5]];portConstraint=eastwest;whiteSpace=wrap;html=1;" vertex="1" parent="8VvqiKtZqV-mQerocvvE-0">
          <mxGeometry y="60" width="160" height="26" as="geometry" />
        </mxCell>
        <mxCell id="8VvqiKtZqV-mQerocvvE-4" value="" style="endArrow=open;endFill=1;endSize=12;html=1;rounded=0;exitX=0;exitY=0.911;exitDx=0;exitDy=0;exitPerimeter=0;entryX=1;entryY=0.25;entryDx=0;entryDy=0;" edge="1" parent="WIyWlLk6GJQsqaUBKTNV-1" source="5FpKh8Eru8khB4CTVwO_-100" target="8VvqiKtZqV-mQerocvvE-0">
          <mxGeometry width="160" relative="1" as="geometry">
            <mxPoint x="4400" y="2060" as="sourcePoint" />
            <mxPoint x="4290" y="2090" as="targetPoint" />
          </mxGeometry>
        </mxCell>
        <mxCell id="8VvqiKtZqV-mQerocvvE-5" value="" style="endArrow=open;endFill=1;endSize=12;html=1;rounded=0;exitX=0.708;exitY=1.009;exitDx=0;exitDy=0;exitPerimeter=0;entryX=0.5;entryY=0;entryDx=0;entryDy=0;" edge="1" parent="WIyWlLk6GJQsqaUBKTNV-1" source="5FpKh8Eru8khB4CTVwO_-90" target="8VvqiKtZqV-mQerocvvE-0">
          <mxGeometry width="160" relative="1" as="geometry">
            <mxPoint x="4370" y="2058" as="sourcePoint" />
            <mxPoint x="4200" y="2050" as="targetPoint" />
          </mxGeometry>
        </mxCell>
        <mxCell id="8VvqiKtZqV-mQerocvvE-6" value="QMainWindow" style="swimlane;fontStyle=1;align=center;verticalAlign=top;childLayout=stackLayout;horizontal=1;startSize=26;horizontalStack=0;resizeParent=1;resizeParentMax=0;resizeLast=0;collapsible=1;marginBottom=0;whiteSpace=wrap;html=1;" vertex="1" parent="WIyWlLk6GJQsqaUBKTNV-1">
          <mxGeometry x="3642" y="2040" width="160" height="86" as="geometry" />
        </mxCell>
        <mxCell id="8VvqiKtZqV-mQerocvvE-7" value="..." style="text;strokeColor=none;fillColor=none;align=left;verticalAlign=top;spacingLeft=4;spacingRight=4;overflow=hidden;rotatable=0;points=[[0,0.5],[1,0.5]];portConstraint=eastwest;whiteSpace=wrap;html=1;" vertex="1" parent="8VvqiKtZqV-mQerocvvE-6">
          <mxGeometry y="26" width="160" height="26" as="geometry" />
        </mxCell>
        <mxCell id="8VvqiKtZqV-mQerocvvE-8" value="" style="line;strokeWidth=1;fillColor=none;align=left;verticalAlign=middle;spacingTop=-1;spacingLeft=3;spacingRight=3;rotatable=0;labelPosition=right;points=[];portConstraint=eastwest;strokeColor=inherit;" vertex="1" parent="8VvqiKtZqV-mQerocvvE-6">
          <mxGeometry y="52" width="160" height="8" as="geometry" />
        </mxCell>
        <mxCell id="8VvqiKtZqV-mQerocvvE-9" value="...()" style="text;strokeColor=none;fillColor=none;align=left;verticalAlign=top;spacingLeft=4;spacingRight=4;overflow=hidden;rotatable=0;points=[[0,0.5],[1,0.5]];portConstraint=eastwest;whiteSpace=wrap;html=1;" vertex="1" parent="8VvqiKtZqV-mQerocvvE-6">
          <mxGeometry y="60" width="160" height="26" as="geometry" />
        </mxCell>
        <mxCell id="8VvqiKtZqV-mQerocvvE-10" value="" style="endArrow=open;endFill=1;endSize=12;html=1;rounded=0;entryX=0.488;entryY=0;entryDx=0;entryDy=0;entryPerimeter=0;" edge="1" parent="WIyWlLk6GJQsqaUBKTNV-1" target="8VvqiKtZqV-mQerocvvE-6">
          <mxGeometry width="160" relative="1" as="geometry">
            <mxPoint x="3720" y="2020" as="sourcePoint" />
            <mxPoint x="3721" y="2036" as="targetPoint" />
          </mxGeometry>
        </mxCell>
        <mxCell id="8VvqiKtZqV-mQerocvvE-11" value="" style="endArrow=none;dashed=1;html=1;dashPattern=1 3;strokeWidth=2;rounded=0;" edge="1" parent="WIyWlLk6GJQsqaUBKTNV-1">
          <mxGeometry width="50" height="50" relative="1" as="geometry">
            <mxPoint x="3720" y="2010" as="sourcePoint" />
            <mxPoint x="3720" y="1990" as="targetPoint" />
            <Array as="points">
              <mxPoint x="3720" y="2000" />
            </Array>
          </mxGeometry>
        </mxCell>
      </root>
    </mxGraphModel>
  </diagram>
</mxfile>
